<svg width="130" height="40" viewBox="0 0 130 40" fill="none" xmlns="http://www.w3.org/2000/svg">
<path d="M2.72137 39.1249H1.24518L1.00854 39.9527H0L1.43112 35.266H2.54671L3.97783 39.9527H2.95801L2.72137 39.1249ZM2.47346 38.2436L1.98328 36.5278L1.49873 38.2436H2.47346Z" fill="#F89818"/>
<path d="M6.88121 35.266C7.29815 35.266 7.6625 35.3639 7.97427 35.5597C8.28604 35.7556 8.52643 36.0315 8.69546 36.3876C8.86825 36.7392 8.95464 37.1465 8.95464 37.6094C8.95464 38.0678 8.86825 38.475 8.69546 38.8311C8.52643 39.1872 8.28416 39.4631 7.96864 39.659C7.65687 39.8548 7.2944 39.9527 6.88121 39.9527H5.39939V35.266H6.88121ZM6.81924 38.9646C7.18359 38.9646 7.46718 38.8467 7.67002 38.6108C7.87285 38.3749 7.97427 38.0411 7.97427 37.6094C7.97427 37.1776 7.87285 36.8416 7.67002 36.6012C7.46718 36.3609 7.18359 36.2407 6.81924 36.2407H6.36286V38.9646H6.81924Z" fill="#F89818"/>
<path d="M12.3497 39.9995C11.9778 39.9995 11.636 39.8971 11.3242 39.6924C11.0162 39.4876 10.7702 39.2028 10.5861 38.8378C10.4058 38.4684 10.3157 38.0544 10.3157 37.596C10.3157 37.1376 10.4058 36.7259 10.5861 36.3609C10.7702 35.9959 11.0162 35.7111 11.3242 35.5063C11.636 35.3016 11.9778 35.1992 12.3497 35.1992C12.7215 35.1992 13.0615 35.3016 13.3695 35.5063C13.6812 35.7111 13.9254 35.9959 14.1019 36.3609C14.2822 36.7259 14.3724 37.1376 14.3724 37.596C14.3724 38.0544 14.2822 38.4684 14.1019 38.8378C13.9216 39.2028 13.6775 39.4876 13.3695 39.6924C13.0615 39.8971 12.7215 39.9995 12.3497 39.9995ZM12.3497 38.958C12.6652 38.958 12.9169 38.8333 13.1047 38.5841C13.2962 38.3348 13.392 38.0055 13.392 37.596C13.392 37.1821 13.2962 36.8527 13.1047 36.6079C12.9169 36.3587 12.6652 36.234 12.3497 36.234C12.0304 36.234 11.775 36.3564 11.5834 36.6012C11.3956 36.846 11.3017 37.1776 11.3017 37.596C11.3017 38.0099 11.3956 38.3415 11.5834 38.5908C11.775 38.8356 12.0304 38.958 12.3497 38.958Z" fill="#F89818"/>
<path d="M17.9115 39.9527L17.0889 38.1835H16.8579V39.9527H15.8944V35.266H17.5114C17.8232 35.266 18.088 35.3305 18.3059 35.4596C18.5275 35.5887 18.6928 35.7667 18.8017 35.9937C18.9106 36.2162 18.9651 36.4655 18.9651 36.7414C18.9651 37.053 18.89 37.3312 18.7397 37.576C18.5932 37.8208 18.3754 37.9944 18.0861 38.0967L18.9989 39.9527H17.9115ZM16.8579 37.3757H17.4551C17.6316 37.3757 17.7631 37.3245 17.8495 37.2221C17.9397 37.1198 17.9847 36.9751 17.9847 36.7882C17.9847 36.6101 17.9397 36.4699 17.8495 36.3676C17.7631 36.2652 17.6316 36.214 17.4551 36.214H16.8579V37.3757Z" fill="#F89818"/>
<path d="M24.0943 39.9527H23.1308L21.5194 37.0619V39.9527H20.5559V35.266H21.5194L23.1308 38.1702V35.266H24.0943V39.9527Z" fill="#F89818"/>
<path d="M33.5305 35.266L32.1614 38.4038V39.9527H31.1979V38.4038L29.8288 35.266H30.9218L31.6881 37.2288L32.4487 35.266H33.5305Z" fill="#F89818"/>
<path d="M36.7753 39.9995C36.4034 39.9995 36.0616 39.8971 35.7499 39.6924C35.4418 39.4876 35.1958 39.2028 35.0118 38.8378C34.8315 38.4684 34.7413 38.0544 34.7413 37.596C34.7413 37.1376 34.8315 36.7259 35.0118 36.3609C35.1958 35.9959 35.4418 35.7111 35.7499 35.5063C36.0616 35.3016 36.4034 35.1992 36.7753 35.1992C37.1472 35.1992 37.4871 35.3016 37.7951 35.5063C38.1069 35.7111 38.351 35.9959 38.5276 36.3609C38.7079 36.7259 38.798 37.1376 38.798 37.596C38.798 38.0544 38.7079 38.4684 38.5276 38.8378C38.3473 39.2028 38.1031 39.4876 37.7951 39.6924C37.4871 39.8971 37.1472 39.9995 36.7753 39.9995ZM36.7753 38.958C37.0908 38.958 37.3425 38.8333 37.5303 38.5841C37.7219 38.3348 37.8176 38.0055 37.8176 37.596C37.8176 37.1821 37.7219 36.8527 37.5303 36.6079C37.3425 36.3587 37.0908 36.234 36.7753 36.234C36.456 36.234 36.2006 36.3564 36.009 36.6012C35.8212 36.846 35.7273 37.1776 35.7273 37.596C35.7273 38.0099 35.8212 38.3415 36.009 38.5908C36.2006 38.8356 36.456 38.958 36.7753 38.958Z" fill="#F89818"/>
<path d="M41.2666 35.266V38.07C41.2666 38.3504 41.3248 38.5663 41.4413 38.7176C41.5577 38.8689 41.7286 38.9446 41.954 38.9446C42.1794 38.9446 42.3521 38.8689 42.4723 38.7176C42.5925 38.5663 42.6526 38.3504 42.6526 38.07V35.266H43.6161V38.0633C43.6161 38.4817 43.541 38.8356 43.3907 39.1249C43.2405 39.4142 43.0376 39.6323 42.7822 39.7791C42.5306 39.926 42.2488 39.9995 41.9371 39.9995C41.6253 39.9995 41.3455 39.9282 41.0976 39.7858C40.8534 39.6389 40.66 39.4209 40.5172 39.1315C40.3745 38.8378 40.3031 38.4817 40.3031 38.0633V35.266H41.2666Z" fill="#F89818"/>
<path d="M47.2957 39.9527L46.4731 38.1835H46.2421V39.9527H45.2787V35.266H46.8957C47.2075 35.266 47.4723 35.3305 47.6902 35.4596C47.9118 35.5887 48.077 35.7667 48.186 35.9937C48.2949 36.2162 48.3494 36.4655 48.3494 36.7414C48.3494 37.053 48.2742 37.3312 48.124 37.576C47.9775 37.8208 47.7596 37.9944 47.4704 38.0967L48.3832 39.9527H47.2957ZM46.2421 37.3757H46.8394C47.0159 37.3757 47.1474 37.3245 47.2338 37.2221C47.3239 37.1198 47.369 36.9751 47.369 36.7882C47.369 36.6101 47.3239 36.4699 47.2338 36.3676C47.1474 36.2652 47.0159 36.214 46.8394 36.214H46.2421V37.3757Z" fill="#F89818"/>
<path d="M54.5148 37.5493C54.7439 37.6071 54.9279 37.7429 55.0669 37.9565C55.2059 38.1657 55.2754 38.4061 55.2754 38.6776C55.2754 39.0692 55.159 39.3808 54.9261 39.6122C54.6969 39.8392 54.3758 39.9527 53.9626 39.9527H52.1202V35.266H53.9006C54.3025 35.266 54.6162 35.375 54.8416 35.5931C55.0707 35.8112 55.1852 36.1072 55.1852 36.4811C55.1852 36.757 55.1233 36.9862 54.9993 37.1687C54.8791 37.3512 54.7176 37.4781 54.5148 37.5493ZM53.0836 37.162H53.7147C53.8725 37.162 53.9926 37.122 54.0753 37.0419C54.1617 36.9573 54.2049 36.8349 54.2049 36.6747C54.2049 36.5144 54.1617 36.392 54.0753 36.3075C53.9926 36.2229 53.8725 36.1806 53.7147 36.1806H53.0836V37.162ZM53.7936 39.0314C53.9551 39.0314 54.079 38.9891 54.1654 38.9046C54.2556 38.8155 54.3007 38.6887 54.3007 38.524C54.3007 38.3593 54.2537 38.2302 54.1598 38.1368C54.0696 38.0433 53.9438 37.9966 53.7823 37.9966H53.0836V39.0314H53.7936Z" fill="#F89818"/>
<path d="M57.7668 35.266V38.07C57.7668 38.3504 57.825 38.5663 57.9414 38.7176C58.0579 38.8689 58.2288 38.9446 58.4542 38.9446C58.6795 38.9446 58.8523 38.8689 58.9725 38.7176C59.0927 38.5663 59.1528 38.3504 59.1528 38.07V35.266H60.1163V38.0633C60.1163 38.4817 60.0412 38.8356 59.8909 39.1249C59.7407 39.4142 59.5378 39.6323 59.2824 39.7791C59.0307 39.926 58.749 39.9995 58.4373 39.9995C58.1255 39.9995 57.8456 39.9282 57.5977 39.7858C57.3536 39.6389 57.1601 39.4209 57.0174 39.1315C56.8747 38.8378 56.8033 38.4817 56.8033 38.0633V35.266H57.7668Z" fill="#F89818"/>
<path d="M63.21 39.9995C62.9207 39.9995 62.6616 39.9438 62.4324 39.8326C62.2033 39.7213 62.0192 39.5566 61.8803 39.3385C61.745 39.1204 61.6737 38.8578 61.6662 38.5507H62.6916C62.7066 38.7243 62.7573 38.8578 62.8437 38.9513C62.9301 39.0403 63.0428 39.0848 63.1818 39.0848C63.3245 39.0848 63.4372 39.047 63.5198 38.9713C63.6025 38.8912 63.6438 38.7822 63.6438 38.6442C63.6438 38.5285 63.61 38.4328 63.5424 38.3571C63.4785 38.2814 63.3978 38.2191 63.3001 38.1702C63.2062 38.1212 63.071 38.0656 62.8944 38.0033C62.639 37.9098 62.4305 37.8163 62.269 37.7229C62.1075 37.6294 61.9685 37.4914 61.8521 37.3089C61.7356 37.1264 61.6774 36.8883 61.6774 36.5946C61.6774 36.1584 61.8108 35.8179 62.0775 35.5731C62.3441 35.3238 62.6916 35.1992 63.1198 35.1992C63.5555 35.1992 63.9067 35.3238 64.1734 35.5731C64.4401 35.8179 64.5828 36.1606 64.6016 36.6012H63.5593C63.5518 36.4499 63.5048 36.332 63.4184 36.2474C63.332 36.1584 63.2212 36.1139 63.086 36.1139C62.9696 36.1139 62.8757 36.1517 62.8043 36.2274C62.7329 36.2986 62.6972 36.4032 62.6972 36.5412C62.6972 36.6925 62.7573 36.8104 62.8775 36.895C62.9977 36.9796 63.1855 37.0708 63.441 37.1687C63.6964 37.2711 63.903 37.369 64.0607 37.4625C64.2223 37.5559 64.3612 37.6917 64.4777 37.8697C64.5941 38.0478 64.6523 38.277 64.6523 38.5574C64.6523 38.8244 64.5941 39.067 64.4777 39.2851C64.365 39.5032 64.1997 39.6768 63.9819 39.8058C63.764 39.9349 63.5067 39.9995 63.21 39.9995Z" fill="#F89818"/>
<path d="M67.1947 35.266V39.9527H66.2313V35.266H67.1947Z" fill="#F89818"/>
<path d="M72.4173 39.9527H71.4538L69.8424 37.0619V39.9527H68.879V35.266H69.8424L71.4538 38.1702V35.266H72.4173V39.9527Z" fill="#F89818"/>
<path d="M75.0652 36.1806V37.1287H76.3554V38.0099H75.0652V39.0381H76.5245V39.9527H74.1017V35.266H76.5245V36.1806H75.0652Z" fill="#F89818"/>
<path d="M79.5671 39.9995C79.2778 39.9995 79.0187 39.9438 78.7895 39.8326C78.5604 39.7213 78.3764 39.5566 78.2374 39.3385C78.1021 39.1204 78.0308 38.8578 78.0233 38.5507H79.0487C79.0637 38.7243 79.1144 38.8578 79.2008 38.9513C79.2872 39.0403 79.3999 39.0848 79.5389 39.0848C79.6816 39.0848 79.7943 39.047 79.877 38.9713C79.9596 38.8912 80.0009 38.7822 80.0009 38.6442C80.0009 38.5285 79.9671 38.4328 79.8995 38.3571C79.8356 38.2814 79.7549 38.2191 79.6572 38.1702C79.5633 38.1212 79.4281 38.0656 79.2515 38.0033C78.9961 37.9098 78.7877 37.8163 78.6261 37.7229C78.4646 37.6294 78.3256 37.4914 78.2092 37.3089C78.0928 37.1264 78.0345 36.8883 78.0345 36.5946C78.0345 36.1584 78.1679 35.8179 78.4346 35.5731C78.7013 35.3238 79.0487 35.1992 79.4769 35.1992C79.9126 35.1992 80.2638 35.3238 80.5305 35.5731C80.7972 35.8179 80.94 36.1606 80.9587 36.6012H79.9164C79.9089 36.4499 79.8619 36.332 79.7755 36.2474C79.6891 36.1584 79.5783 36.1139 79.4431 36.1139C79.3267 36.1139 79.2328 36.1517 79.1614 36.2274C79.09 36.2986 79.0544 36.4032 79.0544 36.5412C79.0544 36.6925 79.1144 36.8104 79.2346 36.895C79.3548 36.9796 79.5427 37.0708 79.7981 37.1687C80.0535 37.2711 80.2601 37.369 80.4179 37.4625C80.5794 37.5559 80.7184 37.6917 80.8348 37.8697C80.9512 38.0478 81.0095 38.277 81.0095 38.5574C81.0095 38.8244 80.9512 39.067 80.8348 39.2851C80.7221 39.5032 80.5568 39.6768 80.339 39.8058C80.1211 39.9349 79.8638 39.9995 79.5671 39.9995Z" fill="#F89818"/>
<path d="M84.0195 39.9995C83.7303 39.9995 83.4711 39.9438 83.242 39.8326C83.0128 39.7213 82.8288 39.5566 82.6898 39.3385C82.5546 39.1204 82.4832 38.8578 82.4757 38.5507H83.5011C83.5162 38.7243 83.5669 38.8578 83.6533 38.9513C83.7397 39.0403 83.8523 39.0848 83.9913 39.0848C84.1341 39.0848 84.2467 39.047 84.3294 38.9713C84.412 38.8912 84.4533 38.7822 84.4533 38.6442C84.4533 38.5285 84.4195 38.4328 84.3519 38.3571C84.2881 38.2814 84.2073 38.2191 84.1096 38.1702C84.0157 38.1212 83.8805 38.0656 83.704 38.0033C83.4486 37.9098 83.2401 37.8163 83.0786 37.7229C82.9171 37.6294 82.7781 37.4914 82.6616 37.3089C82.5452 37.1264 82.487 36.8883 82.487 36.5946C82.487 36.1584 82.6203 35.8179 82.887 35.5731C83.1537 35.3238 83.5011 35.1992 83.9294 35.1992C84.3651 35.1992 84.7163 35.3238 84.983 35.5731C85.2497 35.8179 85.3924 36.1606 85.4112 36.6012H84.3688C84.3613 36.4499 84.3144 36.332 84.228 36.2474C84.1416 36.1584 84.0308 36.1139 83.8955 36.1139C83.7791 36.1139 83.6852 36.1517 83.6138 36.2274C83.5425 36.2986 83.5068 36.4032 83.5068 36.5412C83.5068 36.6925 83.5669 36.8104 83.6871 36.895C83.8073 36.9796 83.9951 37.0708 84.2505 37.1687C84.5059 37.2711 84.7125 37.369 84.8703 37.4625C85.0318 37.5559 85.1708 37.6917 85.2872 37.8697C85.4037 38.0478 85.4619 38.277 85.4619 38.5574C85.4619 38.8244 85.4037 39.067 85.2872 39.2851C85.1745 39.5032 85.0093 39.6768 84.7914 39.8058C84.5735 39.9349 84.3162 39.9995 84.0195 39.9995Z" fill="#F89818"/>
<path d="M90.7026 35.266C91.1196 35.266 91.4839 35.3639 91.7957 35.5597C92.1075 35.7556 92.3479 36.0315 92.5169 36.3876C92.6897 36.7392 92.7761 37.1465 92.7761 37.6094C92.7761 38.0678 92.6897 38.475 92.5169 38.8311C92.3479 39.1872 92.1056 39.4631 91.7901 39.659C91.4783 39.8548 91.1158 39.9527 90.7026 39.9527H89.2208V35.266H90.7026ZM90.6407 38.9646C91.005 38.9646 91.2886 38.8467 91.4914 38.6108C91.6943 38.3749 91.7957 38.0411 91.7957 37.6094C91.7957 37.1776 91.6943 36.8416 91.4914 36.6012C91.2886 36.3609 91.005 36.2407 90.6407 36.2407H90.1843V38.9646H90.6407Z" fill="#F89818"/>
<path d="M95.264 36.1806V37.1287H96.5542V38.0099H95.264V39.0381H96.7233V39.9527H94.3005V35.266H96.7233V36.1806H95.264Z" fill="#F89818"/>
<path d="M99.2982 39.0715H100.56V39.9527H98.3347V35.266H99.2982V39.0715Z" fill="#F89818"/>
<path d="M102.969 35.266V39.9527H102.006V35.266H102.969Z" fill="#F89818"/>
<path d="M108.367 35.266L106.964 39.9527H105.758L104.355 35.266H105.38L106.361 38.8044L107.347 35.266H108.367Z" fill="#F89818"/>
<path d="M110.719 36.1806V37.1287H112.009V38.0099H110.719V39.0381H112.178V39.9527H109.755V35.266H112.178V36.1806H110.719Z" fill="#F89818"/>
<path d="M115.807 39.9527L114.984 38.1835H114.753V39.9527H113.789V35.266H115.407C115.718 35.266 115.983 35.3305 116.201 35.4596C116.423 35.5887 116.588 35.7667 116.697 35.9937C116.806 36.2162 116.86 36.4655 116.86 36.7414C116.86 37.053 116.785 37.3312 116.635 37.576C116.488 37.8208 116.27 37.9944 115.981 38.0967L116.894 39.9527H115.807ZM114.753 37.3757H115.35C115.527 37.3757 115.658 37.3245 115.745 37.2221C115.835 37.1198 115.88 36.9751 115.88 36.7882C115.88 36.6101 115.835 36.4699 115.745 36.3676C115.658 36.2652 115.527 36.214 115.35 36.214H114.753V37.3757Z" fill="#F89818"/>
<path d="M119.414 35.266V39.9527H118.451V35.266H119.414Z" fill="#F89818"/>
<path d="M122.062 36.1806V37.1287H123.352V38.0099H122.062V39.0381H123.521V39.9527H121.099V35.266H123.521V36.1806H122.062Z" fill="#F89818"/>
<path d="M126.564 39.9995C126.275 39.9995 126.016 39.9438 125.787 39.8326C125.557 39.7213 125.373 39.5566 125.234 39.3385C125.099 39.1204 125.028 38.8578 125.02 38.5507H126.046C126.061 38.7243 126.111 38.8578 126.198 38.9513C126.284 39.0403 126.397 39.0848 126.536 39.0848C126.679 39.0848 126.791 39.047 126.874 38.9713C126.957 38.8912 126.998 38.7822 126.998 38.6442C126.998 38.5285 126.964 38.4328 126.896 38.3571C126.833 38.2814 126.752 38.2191 126.654 38.1702C126.56 38.1212 126.425 38.0656 126.249 38.0033C125.993 37.9098 125.785 37.8163 125.623 37.7229C125.462 37.6294 125.323 37.4914 125.206 37.3089C125.09 37.1264 125.032 36.8883 125.032 36.5946C125.032 36.1584 125.165 35.8179 125.432 35.5731C125.698 35.3238 126.046 35.1992 126.474 35.1992C126.91 35.1992 127.261 35.3238 127.528 35.5731C127.794 35.8179 127.937 36.1606 127.956 36.6012H126.913C126.906 36.4499 126.859 36.332 126.773 36.2474C126.686 36.1584 126.575 36.1139 126.44 36.1139C126.324 36.1139 126.23 36.1517 126.158 36.2274C126.087 36.2986 126.051 36.4032 126.051 36.5412C126.051 36.6925 126.111 36.8104 126.232 36.895C126.352 36.9796 126.54 37.0708 126.795 37.1687C127.05 37.2711 127.257 37.369 127.415 37.4625C127.576 37.5559 127.715 37.6917 127.832 37.8697C127.948 38.0478 128.006 38.277 128.006 38.5574C128.006 38.8244 127.948 39.067 127.832 39.2851C127.719 39.5032 127.554 39.6768 127.336 39.8058C127.118 39.9349 126.861 39.9995 126.564 39.9995Z" fill="#F89818"/>
<path d="M6.66684 22.0866H15.4V27.2014H0V0H6.66684V22.0866Z" fill="#F89818"/>
<path d="M25.2468 0V27.2014H18.5799V0H25.2468Z" fill="#F89818"/>
<path d="M61.0731 0V27.2014H54.4063V10.8883L48.2853 27.2014H42.905L36.745 10.8496V27.2014H30.0782V0H37.9536L45.6341 18.8317L53.2367 0H61.0731Z" fill="#F89818"/>
<path d="M82.9048 22.3966H72.6901L71.0527 27.2014H64.0739L73.9767 0H81.6962L91.599 27.2014H84.5423L82.9048 22.3966ZM81.1894 17.2818L77.7975 7.32345L74.4446 17.2818H81.1894Z" fill="#F89818"/>
<path d="M104.867 0C107.752 0 110.273 0.56831 112.43 1.70493C114.587 2.84155 116.251 4.44315 117.421 6.50973C118.616 8.55048 119.214 10.9141 119.214 13.6007C119.214 16.2614 118.616 18.6251 117.421 20.6916C116.251 22.7582 114.574 24.3598 112.391 25.4964C110.234 26.6331 107.726 27.2014 104.867 27.2014H94.6129V0H104.867ZM104.438 21.4666C106.959 21.4666 108.921 20.7821 110.325 19.4129C111.728 18.0438 112.43 16.1064 112.43 13.6007C112.43 11.095 111.728 9.14462 110.325 7.74968C108.921 6.35474 106.959 5.65726 104.438 5.65726H101.28V21.4666H104.438Z" fill="#F89818"/>
<path d="M129.607 0V27.2014H122.94V0H129.607Z" fill="#F89818"/>
</svg>
