<svg xmlns="http://www.w3.org/2000/svg" version="1.1" xmlns:xlink="http://www.w3.org/1999/xlink" xmlns:svgjs="http://svgjs.com/svgjs" width="512" height="512" x="0" y="0" viewBox="0 0 24 24" style="enable-background:new 0 0 512 512" xml:space="preserve"><g><g xmlns="http://www.w3.org/2000/svg" id="Layer_62" data-name="Layer 62"><path d="m3 6h11a2 2 0 0 0 2 2h2a2 2 0 0 0 2-2h1a1 1 0 0 0 0-2h-1a2 2 0 0 0 -2-2h-2a2 2 0 0 0 -2 2h-11a1 1 0 0 0 0 2zm13-2h2v1 1h-2zm5 7h-9a2 2 0 0 0 -2-2h-2a2 2 0 0 0 -2 2h-3a1 1 0 0 0 0 2h3a2 2 0 0 0 2 2h2a2 2 0 0 0 2-2h9a1 1 0 0 0 0-2zm-13 2v-2h2v1 1zm13 5h-3a2 2 0 0 0 -2-2h-2a2 2 0 0 0 -2 2h-9a1 1 0 0 0 0 2h9a2 2 0 0 0 2 2h2a2 2 0 0 0 2-2h3a1 1 0 0 0 0-2zm-7 2v-2h2v1 1z" fill="#000000" data-original="#000000"></path></g></g></svg>