<svg width="50" height="50" viewBox="0 0 50 50" fill="none" xmlns="http://www.w3.org/2000/svg">
<g clip-path="url(#clip0_2926_25524)">
<path d="M25 0C11.1943 0 0 11.1921 0 24.9989C0 38.8056 11.1932 49.9978 25 49.9978C38.8079 49.9978 50 38.8056 50 24.9989C50 11.1921 38.8079 0 25 0ZM25 7.47496C29.5682 7.47496 33.27 11.1778 33.27 15.7439C33.27 20.311 29.5682 24.0128 25 24.0128C20.434 24.0128 16.7322 20.311 16.7322 15.7439C16.7322 11.1778 20.434 7.47496 25 7.47496ZM24.9945 43.4617C20.4384 43.4617 16.2655 41.8024 13.0469 39.056C12.2628 38.3873 11.8104 37.4066 11.8104 36.3777C11.8104 31.7469 15.5583 28.0407 20.1902 28.0407H29.812C34.445 28.0407 38.1786 31.7469 38.1786 36.3777C38.1786 37.4077 37.7284 38.3862 36.9433 39.0549C33.7257 41.8024 29.5517 43.4617 24.9945 43.4617Z" fill="#333333"/>
</g>
<defs>
<clipPath id="clip0_2926_25524">
<rect width="50" height="50" fill="white"/>
</clipPath>
</defs>
</svg>
