<svg width="40" height="40" viewBox="0 0 40 40" fill="none" xmlns="http://www.w3.org/2000/svg">
<circle cx="20" cy="20" r="20" fill="#E9E9E9"/>
<path fill-rule="evenodd" clip-rule="evenodd" d="M28.3838 15.9954C28.3838 17.5653 28.7988 18.4907 29.7119 19.557C30.4039 20.3426 30.625 21.351 30.625 22.445C30.625 23.5378 30.266 24.5752 29.5467 25.4174C28.605 26.4271 27.2769 27.0717 25.9216 27.1837C23.9574 27.3512 21.9921 27.4922 20.0006 27.4922C18.0079 27.4922 16.0438 27.4078 14.0797 27.1837C12.7231 27.0717 11.395 26.4271 10.4546 25.4174C9.73527 24.5752 9.375 23.5378 9.375 22.445C9.375 21.351 9.59738 20.3426 10.2881 19.557C11.2298 18.4907 11.6174 17.5653 11.6174 15.9954V15.4629C11.6174 13.3604 12.1417 11.9856 13.2212 10.6398C14.8263 8.67712 17.3992 7.5 19.9447 7.5H20.0565C22.6567 7.5 25.3128 8.73377 26.8906 10.7808C27.9142 12.099 28.3838 13.4158 28.3838 15.4629V15.9954ZM16.3429 30.076C16.3429 29.4465 16.9206 29.1582 17.4548 29.0349C18.0797 28.9027 21.8874 28.9027 22.5123 29.0349C23.0465 29.1582 23.6242 29.4465 23.6242 30.076C23.5932 30.6753 23.2416 31.2066 22.7558 31.544C22.126 32.035 21.3868 32.3459 20.6141 32.458C20.1867 32.5134 19.7668 32.5146 19.3543 32.458C18.5804 32.3459 17.8412 32.035 17.2126 31.5427C16.7256 31.2066 16.374 30.6753 16.3429 30.076Z" fill="#828282"/>
</svg>
