<svg width="30" height="30" viewBox="0 0 30 30" fill="none" xmlns="http://www.w3.org/2000/svg">
<path fill-rule="evenodd" clip-rule="evenodd" d="M23.3838 10.9954C23.3838 12.5653 23.7988 13.4907 24.7119 14.557C25.4039 15.3426 25.625 16.351 25.625 17.445C25.625 18.5378 25.266 19.5752 24.5467 20.4174C23.605 21.4271 22.2769 22.0717 20.9216 22.1837C18.9574 22.3512 16.9921 22.4922 15.0006 22.4922C13.0079 22.4922 11.0438 22.4078 9.07969 22.1837C7.72307 22.0717 6.39502 21.4271 5.45458 20.4174C4.73527 19.5752 4.375 18.5378 4.375 17.445C4.375 16.351 4.59738 15.3426 5.28811 14.557C6.22979 13.4907 6.6174 12.5653 6.6174 10.9954V10.4629C6.6174 8.36042 7.14166 6.98565 8.22124 5.63983C9.82633 3.67712 12.3992 2.5 14.9447 2.5H15.0565C17.6567 2.5 20.3128 3.73377 21.8906 5.78083C22.9142 7.09895 23.3838 8.41582 23.3838 10.4629V10.9954ZM11.3429 25.076C11.3429 24.4465 11.9206 24.1582 12.4548 24.0349C13.0797 23.9027 16.8874 23.9027 17.5123 24.0349C18.0465 24.1582 18.6242 24.4465 18.6242 25.076C18.5932 25.6753 18.2416 26.2066 17.7558 26.544C17.126 27.035 16.3868 27.3459 15.6141 27.458C15.1867 27.5134 14.7668 27.5146 14.3543 27.458C13.5804 27.3459 12.8412 27.035 12.2126 26.5427C11.7256 26.2066 11.374 25.6753 11.3429 25.076Z" fill="#828282"/>
</svg>
